<svg width="350" height="350" viewBox="0 0 350 350" fill="none" xmlns="http://www.w3.org/2000/svg">
<rect width="350" height="350" fill="white"/>
<rect x="136" y="144" width="78.0975" height="24.9167" rx="5" fill="#3B86FF" fill-opacity="0.25"/>
<g filter="url(#filter0_d)">
<path d="M148.704 162.133C147.92 162.133 147.22 161.937 146.604 161.545C145.988 161.144 145.503 160.565 145.148 159.809C144.793 159.044 144.616 158.138 144.616 157.093C144.616 156.048 144.793 155.147 145.148 154.391C145.503 153.626 145.988 153.047 146.604 152.655C147.22 152.254 147.92 152.053 148.704 152.053C149.488 152.053 150.188 152.254 150.804 152.655C151.429 153.047 151.919 153.626 152.274 154.391C152.629 155.147 152.806 156.048 152.806 157.093C152.806 158.138 152.629 159.044 152.274 159.809C151.919 160.565 151.429 161.144 150.804 161.545C150.188 161.937 149.488 162.133 148.704 162.133ZM148.704 160.551C149.404 160.551 149.955 160.262 150.356 159.683C150.767 159.104 150.972 158.241 150.972 157.093C150.972 155.945 150.767 155.082 150.356 154.503C149.955 153.924 149.404 153.635 148.704 153.635C148.013 153.635 147.463 153.924 147.052 154.503C146.651 155.082 146.45 155.945 146.45 157.093C146.45 158.241 146.651 159.104 147.052 159.683C147.463 160.262 148.013 160.551 148.704 160.551ZM158.997 156.757C158.68 156.757 158.409 156.65 158.185 156.435C157.961 156.211 157.849 155.931 157.849 155.595C157.849 155.25 157.956 154.97 158.171 154.755C158.395 154.54 158.67 154.433 158.997 154.433C159.324 154.433 159.594 154.54 159.809 154.755C160.033 154.97 160.145 155.25 160.145 155.595C160.145 155.931 160.033 156.211 159.809 156.435C159.585 156.65 159.314 156.757 158.997 156.757ZM158.997 162.091C158.68 162.091 158.409 161.984 158.185 161.769C157.961 161.545 157.849 161.265 157.849 160.929C157.849 160.584 157.956 160.304 158.171 160.089C158.395 159.874 158.67 159.767 158.997 159.767C159.324 159.767 159.594 159.874 159.809 160.089C160.033 160.304 160.145 160.584 160.145 160.929C160.145 161.265 160.033 161.545 159.809 161.769C159.585 161.984 159.314 162.091 158.997 162.091ZM172.29 160.453V161.993H165.066V160.775L168.958 157.079C169.397 156.659 169.691 156.295 169.84 155.987C169.999 155.67 170.078 155.357 170.078 155.049C170.078 154.592 169.924 154.242 169.616 153.999C169.308 153.756 168.856 153.635 168.258 153.635C167.26 153.635 166.494 153.976 165.962 154.657L164.688 153.677C165.071 153.164 165.584 152.767 166.228 152.487C166.882 152.198 167.61 152.053 168.412 152.053C169.476 152.053 170.326 152.305 170.96 152.809C171.595 153.313 171.912 153.999 171.912 154.867C171.912 155.399 171.8 155.898 171.576 156.365C171.352 156.832 170.923 157.364 170.288 157.961L167.67 160.453H172.29ZM177.513 156.239C178.418 156.351 179.109 156.659 179.585 157.163C180.061 157.667 180.299 158.297 180.299 159.053C180.299 159.622 180.154 160.14 179.865 160.607C179.575 161.074 179.137 161.447 178.549 161.727C177.97 161.998 177.261 162.133 176.421 162.133C175.721 162.133 175.044 162.035 174.391 161.839C173.747 161.634 173.196 161.354 172.739 160.999L173.523 159.585C173.877 159.884 174.307 160.122 174.811 160.299C175.324 160.467 175.851 160.551 176.393 160.551C177.037 160.551 177.541 160.42 177.905 160.159C178.278 159.888 178.465 159.524 178.465 159.067C178.465 158.61 178.287 158.255 177.933 158.003C177.587 157.742 177.055 157.611 176.337 157.611H175.441V156.365L177.667 153.719H173.215V152.193H179.893V153.411L177.513 156.239ZM186.45 156.757C186.133 156.757 185.862 156.65 185.638 156.435C185.414 156.211 185.302 155.931 185.302 155.595C185.302 155.25 185.41 154.97 185.624 154.755C185.848 154.54 186.124 154.433 186.45 154.433C186.777 154.433 187.048 154.54 187.262 154.755C187.486 154.97 187.598 155.25 187.598 155.595C187.598 155.931 187.486 156.211 187.262 156.435C187.038 156.65 186.768 156.757 186.45 156.757ZM186.45 162.091C186.133 162.091 185.862 161.984 185.638 161.769C185.414 161.545 185.302 161.265 185.302 160.929C185.302 160.584 185.41 160.304 185.624 160.089C185.848 159.874 186.124 159.767 186.45 159.767C186.777 159.767 187.048 159.874 187.262 160.089C187.486 160.304 187.598 160.584 187.598 160.929C187.598 161.265 187.486 161.545 187.262 161.769C187.038 161.984 186.768 162.091 186.45 162.091ZM196.033 152.193V161.993H194.213V153.719H192.141V152.193H196.033ZM202.149 156.239C203.055 156.351 203.745 156.659 204.221 157.163C204.697 157.667 204.935 158.297 204.935 159.053C204.935 159.622 204.791 160.14 204.501 160.607C204.212 161.074 203.773 161.447 203.185 161.727C202.607 161.998 201.897 162.133 201.057 162.133C200.357 162.133 199.681 162.035 199.027 161.839C198.383 161.634 197.833 161.354 197.375 160.999L198.159 159.585C198.514 159.884 198.943 160.122 199.447 160.299C199.961 160.467 200.488 160.551 201.029 160.551C201.673 160.551 202.177 160.42 202.541 160.159C202.915 159.888 203.101 159.524 203.101 159.067C203.101 158.61 202.924 158.255 202.569 158.003C202.224 157.742 201.692 157.611 200.973 157.611H200.077V156.365L202.303 153.719H197.851V152.193H204.529V153.411L202.149 156.239Z" fill="#3B86FF"/>
</g>
<g filter="url(#filter1_d)">
<path d="M91.47 172.612V183H89.79V182.034C89.5007 182.389 89.1413 182.655 88.712 182.832C88.292 183.009 87.8253 183.098 87.312 183.098C86.5933 183.098 85.9447 182.939 85.366 182.622C84.7967 182.305 84.3487 181.857 84.022 181.278C83.6953 180.69 83.532 180.018 83.532 179.262C83.532 178.506 83.6953 177.839 84.022 177.26C84.3487 176.681 84.7967 176.233 85.366 175.916C85.9447 175.599 86.5933 175.44 87.312 175.44C87.8067 175.44 88.2593 175.524 88.67 175.692C89.0807 175.86 89.4307 176.112 89.72 176.448V172.612H91.47ZM87.522 181.6C87.942 181.6 88.32 181.507 88.656 181.32C88.992 181.124 89.258 180.849 89.454 180.494C89.65 180.139 89.748 179.729 89.748 179.262C89.748 178.795 89.65 178.385 89.454 178.03C89.258 177.675 88.992 177.405 88.656 177.218C88.32 177.022 87.942 176.924 87.522 176.924C87.102 176.924 86.724 177.022 86.388 177.218C86.052 177.405 85.786 177.675 85.59 178.03C85.394 178.385 85.296 178.795 85.296 179.262C85.296 179.729 85.394 180.139 85.59 180.494C85.786 180.849 86.052 181.124 86.388 181.32C86.724 181.507 87.102 181.6 87.522 181.6ZM96.6153 175.44C97.7167 175.44 98.5567 175.706 99.1353 176.238C99.7233 176.761 100.017 177.554 100.017 178.618V183H98.3653V182.09C98.1507 182.417 97.8427 182.669 97.4413 182.846C97.0493 183.014 96.5733 183.098 96.0133 183.098C95.4533 183.098 94.9633 183.005 94.5433 182.818C94.1233 182.622 93.7967 182.356 93.5633 182.02C93.3393 181.675 93.2273 181.287 93.2273 180.858C93.2273 180.186 93.4747 179.649 93.9693 179.248C94.4733 178.837 95.262 178.632 96.3353 178.632H98.2673V178.52C98.2673 177.997 98.1087 177.596 97.7913 177.316C97.4833 177.036 97.0213 176.896 96.4053 176.896C95.9853 176.896 95.57 176.961 95.1593 177.092C94.758 177.223 94.4173 177.405 94.1373 177.638L93.4513 176.364C93.8433 176.065 94.3147 175.837 94.8653 175.678C95.416 175.519 95.9993 175.44 96.6153 175.44ZM96.3773 181.824C96.816 181.824 97.2033 181.726 97.5393 181.53C97.8847 181.325 98.1273 181.035 98.2673 180.662V179.794H96.4613C95.4533 179.794 94.9493 180.125 94.9493 180.788C94.9493 181.105 95.0753 181.357 95.3273 181.544C95.5793 181.731 95.9293 181.824 96.3773 181.824ZM109.127 175.524L105.627 183.602C105.3 184.414 104.903 184.983 104.437 185.31C103.97 185.646 103.405 185.814 102.743 185.814C102.369 185.814 102.001 185.753 101.637 185.632C101.273 185.511 100.974 185.343 100.741 185.128L101.441 183.84C101.609 183.999 101.805 184.125 102.029 184.218C102.262 184.311 102.495 184.358 102.729 184.358C103.037 184.358 103.289 184.279 103.485 184.12C103.69 183.961 103.877 183.695 104.045 183.322L104.171 183.028L100.909 175.524H102.729L105.081 181.054L107.447 175.524H109.127ZM112.435 183.098C111.828 183.098 111.235 183.019 110.657 182.86C110.078 182.701 109.616 182.501 109.271 182.258L109.943 180.928C110.279 181.152 110.68 181.334 111.147 181.474C111.623 181.605 112.089 181.67 112.547 181.67C113.592 181.67 114.115 181.395 114.115 180.844C114.115 180.583 113.979 180.401 113.709 180.298C113.447 180.195 113.023 180.097 112.435 180.004C111.819 179.911 111.315 179.803 110.923 179.682C110.54 179.561 110.204 179.351 109.915 179.052C109.635 178.744 109.495 178.319 109.495 177.778C109.495 177.069 109.789 176.504 110.377 176.084C110.974 175.655 111.777 175.44 112.785 175.44C113.298 175.44 113.811 175.501 114.325 175.622C114.838 175.734 115.258 175.888 115.585 176.084L114.913 177.414C114.278 177.041 113.564 176.854 112.771 176.854C112.257 176.854 111.865 176.933 111.595 177.092C111.333 177.241 111.203 177.442 111.203 177.694C111.203 177.974 111.343 178.175 111.623 178.296C111.912 178.408 112.355 178.515 112.953 178.618C113.55 178.711 114.04 178.819 114.423 178.94C114.805 179.061 115.132 179.267 115.403 179.556C115.683 179.845 115.823 180.256 115.823 180.788C115.823 181.488 115.519 182.048 114.913 182.468C114.306 182.888 113.48 183.098 112.435 183.098Z" fill="#3B86FF"/>
</g>
<g filter="url(#filter2_d)">
<path d="M157.39 194.44C158.333 194.44 159.089 194.715 159.658 195.266C160.227 195.817 160.512 196.633 160.512 197.716V202H158.762V197.94C158.762 197.287 158.608 196.797 158.3 196.47C157.992 196.134 157.553 195.966 156.984 195.966C156.34 195.966 155.831 196.162 155.458 196.554C155.085 196.937 154.898 197.492 154.898 198.22V202H153.148V191.612H154.898V195.392C155.187 195.084 155.542 194.851 155.962 194.692C156.391 194.524 156.867 194.44 157.39 194.44ZM166.16 202.098C165.404 202.098 164.723 201.935 164.116 201.608C163.51 201.281 163.034 200.829 162.688 200.25C162.352 199.662 162.184 198.999 162.184 198.262C162.184 197.525 162.352 196.867 162.688 196.288C163.034 195.709 163.51 195.257 164.116 194.93C164.723 194.603 165.404 194.44 166.16 194.44C166.926 194.44 167.612 194.603 168.218 194.93C168.825 195.257 169.296 195.709 169.632 196.288C169.978 196.867 170.15 197.525 170.15 198.262C170.15 198.999 169.978 199.662 169.632 200.25C169.296 200.829 168.825 201.281 168.218 201.608C167.612 201.935 166.926 202.098 166.16 202.098ZM166.16 200.6C166.804 200.6 167.336 200.385 167.756 199.956C168.176 199.527 168.386 198.962 168.386 198.262C168.386 197.562 168.176 196.997 167.756 196.568C167.336 196.139 166.804 195.924 166.16 195.924C165.516 195.924 164.984 196.139 164.564 196.568C164.154 196.997 163.948 197.562 163.948 198.262C163.948 198.962 164.154 199.527 164.564 199.956C164.984 200.385 165.516 200.6 166.16 200.6ZM179.062 194.524V202H177.396V201.048C177.116 201.384 176.766 201.645 176.346 201.832C175.926 202.009 175.473 202.098 174.988 202.098C173.989 202.098 173.2 201.823 172.622 201.272C172.052 200.712 171.768 199.886 171.768 198.794V194.524H173.518V198.556C173.518 199.228 173.667 199.732 173.966 200.068C174.274 200.395 174.708 200.558 175.268 200.558C175.893 200.558 176.388 200.367 176.752 199.984C177.125 199.592 177.312 199.032 177.312 198.304V194.524H179.062ZM183.019 195.616C183.523 194.832 184.41 194.44 185.679 194.44V196.106C185.53 196.078 185.394 196.064 185.273 196.064C184.592 196.064 184.06 196.265 183.677 196.666C183.294 197.058 183.103 197.627 183.103 198.374V202H181.353V194.524H183.019V195.616ZM189.501 202.098C188.894 202.098 188.302 202.019 187.723 201.86C187.144 201.701 186.682 201.501 186.337 201.258L187.009 199.928C187.345 200.152 187.746 200.334 188.213 200.474C188.689 200.605 189.156 200.67 189.613 200.67C190.658 200.67 191.181 200.395 191.181 199.844C191.181 199.583 191.046 199.401 190.775 199.298C190.514 199.195 190.089 199.097 189.501 199.004C188.885 198.911 188.381 198.803 187.989 198.682C187.606 198.561 187.27 198.351 186.981 198.052C186.701 197.744 186.561 197.319 186.561 196.778C186.561 196.069 186.855 195.504 187.443 195.084C188.04 194.655 188.843 194.44 189.851 194.44C190.364 194.44 190.878 194.501 191.391 194.622C191.904 194.734 192.324 194.888 192.651 195.084L191.979 196.414C191.344 196.041 190.63 195.854 189.837 195.854C189.324 195.854 188.932 195.933 188.661 196.092C188.4 196.241 188.269 196.442 188.269 196.694C188.269 196.974 188.409 197.175 188.689 197.296C188.978 197.408 189.422 197.515 190.019 197.618C190.616 197.711 191.106 197.819 191.489 197.94C191.872 198.061 192.198 198.267 192.469 198.556C192.749 198.845 192.889 199.256 192.889 199.788C192.889 200.488 192.586 201.048 191.979 201.468C191.372 201.888 190.546 202.098 189.501 202.098Z" fill="#3B86FF"/>
</g>
<g filter="url(#filter3_d)">
<path d="M217.584 175.44C218.527 175.44 219.273 175.715 219.824 176.266C220.375 176.807 220.65 177.624 220.65 178.716V183H218.9V178.94C218.9 178.287 218.755 177.797 218.466 177.47C218.177 177.134 217.761 176.966 217.22 176.966C216.632 176.966 216.161 177.162 215.806 177.554C215.451 177.937 215.274 178.487 215.274 179.206V183H213.524V178.94C213.524 178.287 213.379 177.797 213.09 177.47C212.801 177.134 212.385 176.966 211.844 176.966C211.247 176.966 210.771 177.157 210.416 177.54C210.071 177.923 209.898 178.478 209.898 179.206V183H208.148V175.524H209.814V176.476C210.094 176.14 210.444 175.883 210.864 175.706C211.284 175.529 211.751 175.44 212.264 175.44C212.824 175.44 213.319 175.547 213.748 175.762C214.187 175.967 214.532 176.275 214.784 176.686C215.092 176.294 215.489 175.991 215.974 175.776C216.459 175.552 216.996 175.44 217.584 175.44ZM222.886 175.524H224.636V183H222.886V175.524ZM223.768 174.292C223.451 174.292 223.185 174.194 222.97 173.998C222.756 173.793 222.648 173.541 222.648 173.242C222.648 172.943 222.756 172.696 222.97 172.5C223.185 172.295 223.451 172.192 223.768 172.192C224.086 172.192 224.352 172.29 224.566 172.486C224.781 172.673 224.888 172.911 224.888 173.2C224.888 173.508 224.781 173.769 224.566 173.984C224.361 174.189 224.095 174.292 223.768 174.292ZM231.175 175.44C232.118 175.44 232.874 175.715 233.443 176.266C234.012 176.817 234.297 177.633 234.297 178.716V183H232.547V178.94C232.547 178.287 232.393 177.797 232.085 177.47C231.777 177.134 231.338 176.966 230.769 176.966C230.125 176.966 229.616 177.162 229.243 177.554C228.87 177.937 228.683 178.492 228.683 179.22V183H226.933V175.524H228.599V176.49C228.888 176.145 229.252 175.883 229.691 175.706C230.13 175.529 230.624 175.44 231.175 175.44ZM243.755 175.524V183H242.089V182.048C241.809 182.384 241.459 182.645 241.039 182.832C240.619 183.009 240.166 183.098 239.681 183.098C238.682 183.098 237.894 182.823 237.315 182.272C236.746 181.712 236.461 180.886 236.461 179.794V175.524H238.211V179.556C238.211 180.228 238.36 180.732 238.659 181.068C238.967 181.395 239.401 181.558 239.961 181.558C240.586 181.558 241.081 181.367 241.445 180.984C241.818 180.592 242.005 180.032 242.005 179.304V175.524H243.755ZM250.54 182.594C250.335 182.762 250.083 182.888 249.784 182.972C249.495 183.056 249.187 183.098 248.86 183.098C248.039 183.098 247.404 182.883 246.956 182.454C246.508 182.025 246.284 181.399 246.284 180.578V176.98H245.052V175.58H246.284V173.872H248.034V175.58H250.036V176.98H248.034V180.536C248.034 180.9 248.123 181.18 248.3 181.376C248.478 181.563 248.734 181.656 249.07 181.656C249.462 181.656 249.789 181.553 250.05 181.348L250.54 182.594ZM258.762 179.304C258.762 179.425 258.753 179.598 258.734 179.822H252.868C252.971 180.373 253.237 180.811 253.666 181.138C254.105 181.455 254.646 181.614 255.29 181.614C256.111 181.614 256.788 181.343 257.32 180.802L258.258 181.88C257.922 182.281 257.497 182.585 256.984 182.79C256.471 182.995 255.892 183.098 255.248 183.098C254.427 183.098 253.703 182.935 253.078 182.608C252.453 182.281 251.967 181.829 251.622 181.25C251.286 180.662 251.118 179.999 251.118 179.262C251.118 178.534 251.281 177.881 251.608 177.302C251.944 176.714 252.406 176.257 252.994 175.93C253.582 175.603 254.245 175.44 254.982 175.44C255.71 175.44 256.359 175.603 256.928 175.93C257.507 176.247 257.955 176.7 258.272 177.288C258.599 177.867 258.762 178.539 258.762 179.304ZM254.982 176.84C254.422 176.84 253.946 177.008 253.554 177.344C253.171 177.671 252.938 178.109 252.854 178.66H257.096C257.021 178.119 256.793 177.68 256.41 177.344C256.027 177.008 255.551 176.84 254.982 176.84ZM262.753 183.098C262.146 183.098 261.554 183.019 260.975 182.86C260.396 182.701 259.934 182.501 259.589 182.258L260.261 180.928C260.597 181.152 260.998 181.334 261.465 181.474C261.941 181.605 262.408 181.67 262.865 181.67C263.91 181.67 264.433 181.395 264.433 180.844C264.433 180.583 264.298 180.401 264.027 180.298C263.766 180.195 263.341 180.097 262.753 180.004C262.137 179.911 261.633 179.803 261.241 179.682C260.858 179.561 260.522 179.351 260.233 179.052C259.953 178.744 259.813 178.319 259.813 177.778C259.813 177.069 260.107 176.504 260.695 176.084C261.292 175.655 262.095 175.44 263.103 175.44C263.616 175.44 264.13 175.501 264.643 175.622C265.156 175.734 265.576 175.888 265.903 176.084L265.231 177.414C264.596 177.041 263.882 176.854 263.089 176.854C262.576 176.854 262.184 176.933 261.913 177.092C261.652 177.241 261.521 177.442 261.521 177.694C261.521 177.974 261.661 178.175 261.941 178.296C262.23 178.408 262.674 178.515 263.271 178.618C263.868 178.711 264.358 178.819 264.741 178.94C265.124 179.061 265.45 179.267 265.721 179.556C266.001 179.845 266.141 180.256 266.141 180.788C266.141 181.488 265.838 182.048 265.231 182.468C264.624 182.888 263.798 183.098 262.753 183.098Z" fill="#3B86FF"/>
</g>
<line x1="148.5" y1="165" x2="148.5" y2="180" stroke="black"/>
<line x1="148" y1="179.5" x2="118" y2="179.5" stroke="black"/>
<line x1="206" y1="179.5" x2="197" y2="179.5" stroke="black"/>
<path fill-rule="evenodd" clip-rule="evenodd" d="M197.532 180L197.532 165L196.532 165L196.532 180L197.532 180Z" fill="black"/>
<line x1="173.5" y1="165" x2="173.5" y2="190" stroke="black"/>
<defs>
<filter id="filter0_d" x="139.616" y="147.053" width="70.3193" height="20.08" filterUnits="userSpaceOnUse" color-interpolation-filters="sRGB">
<feFlood flood-opacity="0" result="BackgroundImageFix"/>
<feColorMatrix in="SourceAlpha" type="matrix" values="0 0 0 0 0 0 0 0 0 0 0 0 0 0 0 0 0 0 127 0" result="hardAlpha"/>
<feOffset/>
<feGaussianBlur stdDeviation="2.5"/>
<feColorMatrix type="matrix" values="0 0 0 0 0.231373 0 0 0 0 0.52549 0 0 0 0 1 0 0 0 0.5 0"/>
<feBlend mode="normal" in2="BackgroundImageFix" result="effect1_dropShadow"/>
<feBlend mode="normal" in="SourceGraphic" in2="effect1_dropShadow" result="shape"/>
</filter>
<filter id="filter1_d" x="78.532" y="167.612" width="42.2906" height="23.202" filterUnits="userSpaceOnUse" color-interpolation-filters="sRGB">
<feFlood flood-opacity="0" result="BackgroundImageFix"/>
<feColorMatrix in="SourceAlpha" type="matrix" values="0 0 0 0 0 0 0 0 0 0 0 0 0 0 0 0 0 0 127 0" result="hardAlpha"/>
<feOffset/>
<feGaussianBlur stdDeviation="2.5"/>
<feColorMatrix type="matrix" values="0 0 0 0 0.231373 0 0 0 0 0.52549 0 0 0 0 1 0 0 0 0.5 0"/>
<feBlend mode="normal" in2="BackgroundImageFix" result="effect1_dropShadow"/>
<feBlend mode="normal" in="SourceGraphic" in2="effect1_dropShadow" result="shape"/>
</filter>
<filter id="filter2_d" x="148.148" y="186.612" width="49.741" height="20.486" filterUnits="userSpaceOnUse" color-interpolation-filters="sRGB">
<feFlood flood-opacity="0" result="BackgroundImageFix"/>
<feColorMatrix in="SourceAlpha" type="matrix" values="0 0 0 0 0 0 0 0 0 0 0 0 0 0 0 0 0 0 127 0" result="hardAlpha"/>
<feOffset/>
<feGaussianBlur stdDeviation="2.5"/>
<feColorMatrix type="matrix" values="0 0 0 0 0.231373 0 0 0 0 0.52549 0 0 0 0 1 0 0 0 0.5 0"/>
<feBlend mode="normal" in2="BackgroundImageFix" result="effect1_dropShadow"/>
<feBlend mode="normal" in="SourceGraphic" in2="effect1_dropShadow" result="shape"/>
</filter>
<filter id="filter3_d" x="203.148" y="167.192" width="67.9929" height="20.906" filterUnits="userSpaceOnUse" color-interpolation-filters="sRGB">
<feFlood flood-opacity="0" result="BackgroundImageFix"/>
<feColorMatrix in="SourceAlpha" type="matrix" values="0 0 0 0 0 0 0 0 0 0 0 0 0 0 0 0 0 0 127 0" result="hardAlpha"/>
<feOffset/>
<feGaussianBlur stdDeviation="2.5"/>
<feColorMatrix type="matrix" values="0 0 0 0 0.231373 0 0 0 0 0.52549 0 0 0 0 1 0 0 0 0.5 0"/>
<feBlend mode="normal" in2="BackgroundImageFix" result="effect1_dropShadow"/>
<feBlend mode="normal" in="SourceGraphic" in2="effect1_dropShadow" result="shape"/>
</filter>
</defs>
</svg>
