<svg width="65" height="65" viewBox="0 0 65 65" fill="none" xmlns="http://www.w3.org/2000/svg">
<path d="M61.75 0H3.25C1.45507 0 0 1.45507 0 3.25V61.75C0 63.5449 1.45507 65 3.25 65H61.75C63.5449 65 65 63.5449 65 61.75V3.25C65 1.45507 63.5449 0 61.75 0Z" fill="#02020B"/>
<path d="M23.0153 7.42857H15.9847C15.362 7.42857 14.8571 7.94391 14.8571 8.57961V25.7775C14.8571 26.4132 15.362 26.9286 15.9847 26.9286H23.0153C23.638 26.9286 24.1429 26.4132 24.1429 25.7775V8.57961C24.1429 7.94391 23.638 7.42857 23.0153 7.42857Z" fill="white"/>
<path d="M48.9916 7.42857H42.0084C41.3726 7.42857 40.8571 7.91194 40.8571 8.50821V13.7775C40.8571 14.3738 41.3726 14.8571 42.0084 14.8571H48.9916C49.6274 14.8571 50.1429 14.3738 50.1429 13.7775V8.50821C50.1429 7.91194 49.6274 7.42857 48.9916 7.42857Z" fill="white"/>
<path d="M36.0172 7.42857H28.9828C28.3611 7.42857 27.8571 7.93885 27.8571 8.5683V56.4317C27.8571 57.0612 28.3611 57.5714 28.9828 57.5714H36.0172C36.6389 57.5714 37.1429 57.0612 37.1429 56.4317V8.5683C37.1429 7.93885 36.6389 7.42857 36.0172 7.42857Z" fill="white"/>
</svg>
